<mxfile host="app.diagrams.net" modified="2022-11-22T20:58:57.918Z" agent="5.0 (Windows NT 10.0; Win64; x64) AppleWebKit/537.36 (KHTML, like Gecko) Chrome/107.0.0.0 Safari/537.36" etag="6GxRJDJTki0MGQeZMY0r" version="20.5.3" type="github">
  <diagram id="C5RBs43oDa-KdzZeNtuy" name="Page-1">
    <mxGraphModel dx="1646" dy="777" grid="1" gridSize="10" guides="1" tooltips="1" connect="1" arrows="1" fold="1" page="1" pageScale="1" pageWidth="827" pageHeight="1169" math="0" shadow="0">
      <root>
        <mxCell id="WIyWlLk6GJQsqaUBKTNV-0" />
        <mxCell id="WIyWlLk6GJQsqaUBKTNV-1" parent="WIyWlLk6GJQsqaUBKTNV-0" />
        <mxCell id="3qjwR4Y2AXaJF8M1S1Tc-4" style="edgeStyle=orthogonalEdgeStyle;rounded=0;orthogonalLoop=1;jettySize=auto;html=1;exitX=0.5;exitY=1;exitDx=0;exitDy=0;entryX=0.5;entryY=0;entryDx=0;entryDy=0;fontSize=12;fontColor=#000000;" edge="1" parent="WIyWlLk6GJQsqaUBKTNV-1" source="3qjwR4Y2AXaJF8M1S1Tc-2" target="3qjwR4Y2AXaJF8M1S1Tc-3">
          <mxGeometry relative="1" as="geometry" />
        </mxCell>
        <mxCell id="3qjwR4Y2AXaJF8M1S1Tc-2" value="&lt;span style=&quot;font-family: ui-monospace, SFMono-Regular, &amp;quot;SF Mono&amp;quot;, Menlo, Consolas, &amp;quot;Liberation Mono&amp;quot;, monospace; font-size: 13.6px; text-align: left; background-color: rgb(255, 255, 255);&quot;&gt;void burst_c(uint8_t number)&lt;/span&gt;" style="ellipse;whiteSpace=wrap;html=1;" vertex="1" parent="WIyWlLk6GJQsqaUBKTNV-1">
          <mxGeometry x="330" y="50" width="220" height="70" as="geometry" />
        </mxCell>
        <mxCell id="3qjwR4Y2AXaJF8M1S1Tc-6" style="edgeStyle=orthogonalEdgeStyle;rounded=0;orthogonalLoop=1;jettySize=auto;html=1;exitX=0.5;exitY=1;exitDx=0;exitDy=0;entryX=0.5;entryY=0;entryDx=0;entryDy=0;fontSize=12;fontColor=#000000;" edge="1" parent="WIyWlLk6GJQsqaUBKTNV-1" source="3qjwR4Y2AXaJF8M1S1Tc-3" target="3qjwR4Y2AXaJF8M1S1Tc-5">
          <mxGeometry relative="1" as="geometry" />
        </mxCell>
        <mxCell id="3qjwR4Y2AXaJF8M1S1Tc-3" value="&amp;nbsp;num_of_pulses = 0" style="rounded=0;whiteSpace=wrap;html=1;labelBackgroundColor=#FFFFFF;fontSize=12;fontColor=#000000;" vertex="1" parent="WIyWlLk6GJQsqaUBKTNV-1">
          <mxGeometry x="350" y="160" width="180" height="70" as="geometry" />
        </mxCell>
        <mxCell id="3qjwR4Y2AXaJF8M1S1Tc-8" style="edgeStyle=orthogonalEdgeStyle;rounded=0;orthogonalLoop=1;jettySize=auto;html=1;exitX=1;exitY=0.5;exitDx=0;exitDy=0;fontSize=12;fontColor=#000000;" edge="1" parent="WIyWlLk6GJQsqaUBKTNV-1" source="3qjwR4Y2AXaJF8M1S1Tc-5" target="3qjwR4Y2AXaJF8M1S1Tc-7">
          <mxGeometry relative="1" as="geometry" />
        </mxCell>
        <mxCell id="3qjwR4Y2AXaJF8M1S1Tc-16" style="edgeStyle=orthogonalEdgeStyle;rounded=0;orthogonalLoop=1;jettySize=auto;html=1;exitX=0.5;exitY=1;exitDx=0;exitDy=0;entryX=0.5;entryY=0;entryDx=0;entryDy=0;fontSize=12;fontColor=#000000;" edge="1" parent="WIyWlLk6GJQsqaUBKTNV-1" source="3qjwR4Y2AXaJF8M1S1Tc-5" target="3qjwR4Y2AXaJF8M1S1Tc-15">
          <mxGeometry relative="1" as="geometry" />
        </mxCell>
        <mxCell id="3qjwR4Y2AXaJF8M1S1Tc-5" value="num_of_pulses &amp;lt; num" style="rhombus;whiteSpace=wrap;html=1;labelBackgroundColor=#FFFFFF;fontSize=12;fontColor=#000000;" vertex="1" parent="WIyWlLk6GJQsqaUBKTNV-1">
          <mxGeometry x="365" y="290" width="150" height="140" as="geometry" />
        </mxCell>
        <mxCell id="3qjwR4Y2AXaJF8M1S1Tc-10" style="edgeStyle=orthogonalEdgeStyle;rounded=0;orthogonalLoop=1;jettySize=auto;html=1;exitX=0.5;exitY=1;exitDx=0;exitDy=0;entryX=0.5;entryY=0;entryDx=0;entryDy=0;fontSize=12;fontColor=#000000;" edge="1" parent="WIyWlLk6GJQsqaUBKTNV-1" source="3qjwR4Y2AXaJF8M1S1Tc-7" target="3qjwR4Y2AXaJF8M1S1Tc-9">
          <mxGeometry relative="1" as="geometry" />
        </mxCell>
        <mxCell id="3qjwR4Y2AXaJF8M1S1Tc-7" value="output = HIGH" style="rounded=0;whiteSpace=wrap;html=1;labelBackgroundColor=#FFFFFF;fontSize=12;fontColor=#000000;" vertex="1" parent="WIyWlLk6GJQsqaUBKTNV-1">
          <mxGeometry x="570" y="340" width="160" height="40" as="geometry" />
        </mxCell>
        <mxCell id="3qjwR4Y2AXaJF8M1S1Tc-12" style="edgeStyle=orthogonalEdgeStyle;rounded=0;orthogonalLoop=1;jettySize=auto;html=1;exitX=0.5;exitY=1;exitDx=0;exitDy=0;entryX=0.5;entryY=0;entryDx=0;entryDy=0;fontSize=12;fontColor=#000000;" edge="1" parent="WIyWlLk6GJQsqaUBKTNV-1" source="3qjwR4Y2AXaJF8M1S1Tc-9" target="3qjwR4Y2AXaJF8M1S1Tc-11">
          <mxGeometry relative="1" as="geometry" />
        </mxCell>
        <mxCell id="3qjwR4Y2AXaJF8M1S1Tc-9" value="delay" style="rounded=0;whiteSpace=wrap;html=1;labelBackgroundColor=#FFFFFF;fontSize=12;fontColor=#000000;" vertex="1" parent="WIyWlLk6GJQsqaUBKTNV-1">
          <mxGeometry x="575" y="440" width="150" height="50" as="geometry" />
        </mxCell>
        <mxCell id="3qjwR4Y2AXaJF8M1S1Tc-14" style="edgeStyle=orthogonalEdgeStyle;rounded=0;orthogonalLoop=1;jettySize=auto;html=1;exitX=0.5;exitY=1;exitDx=0;exitDy=0;entryX=0.5;entryY=0;entryDx=0;entryDy=0;fontSize=12;fontColor=#000000;" edge="1" parent="WIyWlLk6GJQsqaUBKTNV-1" source="3qjwR4Y2AXaJF8M1S1Tc-11" target="3qjwR4Y2AXaJF8M1S1Tc-13">
          <mxGeometry relative="1" as="geometry" />
        </mxCell>
        <mxCell id="3qjwR4Y2AXaJF8M1S1Tc-11" value="output = LOW" style="rounded=0;whiteSpace=wrap;html=1;labelBackgroundColor=#FFFFFF;fontSize=12;fontColor=#000000;" vertex="1" parent="WIyWlLk6GJQsqaUBKTNV-1">
          <mxGeometry x="575" y="530" width="150" height="45" as="geometry" />
        </mxCell>
        <mxCell id="3qjwR4Y2AXaJF8M1S1Tc-18" style="edgeStyle=orthogonalEdgeStyle;rounded=0;orthogonalLoop=1;jettySize=auto;html=1;exitX=0.5;exitY=1;exitDx=0;exitDy=0;fontSize=12;fontColor=#000000;" edge="1" parent="WIyWlLk6GJQsqaUBKTNV-1" source="3qjwR4Y2AXaJF8M1S1Tc-13">
          <mxGeometry relative="1" as="geometry">
            <mxPoint x="440" y="260" as="targetPoint" />
            <Array as="points">
              <mxPoint x="650" y="710" />
              <mxPoint x="790" y="710" />
              <mxPoint x="790" y="260" />
            </Array>
          </mxGeometry>
        </mxCell>
        <mxCell id="3qjwR4Y2AXaJF8M1S1Tc-13" value="num_of_pulses ++" style="rounded=0;whiteSpace=wrap;html=1;labelBackgroundColor=#FFFFFF;fontSize=12;fontColor=#000000;" vertex="1" parent="WIyWlLk6GJQsqaUBKTNV-1">
          <mxGeometry x="575" y="610" width="150" height="40" as="geometry" />
        </mxCell>
        <mxCell id="3qjwR4Y2AXaJF8M1S1Tc-15" value="END" style="ellipse;whiteSpace=wrap;html=1;aspect=fixed;labelBackgroundColor=#FFFFFF;fontSize=12;fontColor=#000000;" vertex="1" parent="WIyWlLk6GJQsqaUBKTNV-1">
          <mxGeometry x="375" y="480" width="130" height="130" as="geometry" />
        </mxCell>
      </root>
    </mxGraphModel>
  </diagram>
</mxfile>
